<mxfile host="Electron" modified="2023-11-03T11:36:54.866Z" agent="Mozilla/5.0 (Windows NT 10.0; Win64; x64) AppleWebKit/537.36 (KHTML, like Gecko) draw.io/22.0.3 Chrome/114.0.5735.289 Electron/25.8.4 Safari/537.36" etag="6uYju3czveorji76jJ1-" version="22.0.3" type="device">
  <diagram name="Page-1" id="d66fe2ae-3e9f-cf2f-6d29-e24063ad5d60">
    <mxGraphModel dx="3395" dy="712" grid="1" gridSize="10" guides="1" tooltips="1" connect="1" arrows="1" fold="1" page="1" pageScale="1" pageWidth="1100" pageHeight="850" background="none" math="0" shadow="0">
      <root>
        <mxCell id="0" />
        <mxCell id="1" parent="0" />
        <mxCell id="Xi3z--n1uRrspBAFzxMy-2" value="Home PC (IP 10.10.1.101)" style="swimlane;whiteSpace=wrap;html=1;fillColor=#dae8fc;strokeColor=#6c8ebf;swimlaneFillColor=#dae8fc;" vertex="1" parent="1">
          <mxGeometry x="-1470" y="110" width="283" height="280" as="geometry" />
        </mxCell>
        <mxCell id="Xi3z--n1uRrspBAFzxMy-3" value="NetTunnel Software" style="swimlane;whiteSpace=wrap;html=1;fillColor=#ffe6cc;strokeColor=#d79b00;swimlaneFillColor=#ffe6cc;" vertex="1" parent="Xi3z--n1uRrspBAFzxMy-2">
          <mxGeometry x="20" y="35" width="240" height="235" as="geometry">
            <mxRectangle x="35" y="50" width="100" height="30" as="alternateBounds" />
          </mxGeometry>
        </mxCell>
        <mxCell id="Xi3z--n1uRrspBAFzxMy-44" value="Inbound Tunnel" style="swimlane;whiteSpace=wrap;html=1;fillColor=#d5e8d4;strokeColor=#82b366;swimlaneFillColor=#d5e8d4;" vertex="1" parent="Xi3z--n1uRrspBAFzxMy-3">
          <mxGeometry x="20" y="35" width="200" height="185" as="geometry" />
        </mxCell>
        <mxCell id="Xi3z--n1uRrspBAFzxMy-45" value="Listening on Port&amp;nbsp;52845" style="text;html=1;strokeColor=none;fillColor=none;align=center;verticalAlign=middle;whiteSpace=wrap;rounded=0;" vertex="1" parent="Xi3z--n1uRrspBAFzxMy-44">
          <mxGeometry x="10" y="20" width="130" height="30" as="geometry" />
        </mxCell>
        <mxCell id="Xi3z--n1uRrspBAFzxMy-52" value="Inbound Endpoint &lt;u&gt;A&lt;/u&gt;" style="swimlane;whiteSpace=wrap;html=1;fillColor=#e1d5e7;strokeColor=#9673a6;swimlaneFillColor=#e1d5e7;" vertex="1" parent="Xi3z--n1uRrspBAFzxMy-44">
          <mxGeometry x="10" y="51" width="160" height="90" as="geometry" />
        </mxCell>
        <mxCell id="Xi3z--n1uRrspBAFzxMy-53" value="Listens on port 8080" style="text;html=1;align=center;verticalAlign=middle;resizable=0;points=[];autosize=1;strokeColor=none;fillColor=none;" vertex="1" parent="Xi3z--n1uRrspBAFzxMy-52">
          <mxGeometry x="10" y="30" width="130" height="30" as="geometry" />
        </mxCell>
        <mxCell id="Xi3z--n1uRrspBAFzxMy-12" value="Remote Server" style="swimlane;whiteSpace=wrap;html=1;fillColor=#dae8fc;strokeColor=#6c8ebf;swimlaneFillColor=#dae8fc;" vertex="1" parent="1">
          <mxGeometry x="-620" y="110" width="270" height="280" as="geometry" />
        </mxCell>
        <mxCell id="Xi3z--n1uRrspBAFzxMy-13" value="NetTunnel Software" style="swimlane;whiteSpace=wrap;html=1;fillColor=#ffe6cc;strokeColor=#d79b00;swimlaneFillColor=#ffe6cc;" vertex="1" parent="Xi3z--n1uRrspBAFzxMy-12">
          <mxGeometry x="23" y="35" width="237" height="235" as="geometry">
            <mxRectangle x="35" y="50" width="100" height="30" as="alternateBounds" />
          </mxGeometry>
        </mxCell>
        <mxCell id="Xi3z--n1uRrspBAFzxMy-46" value="&lt;b style=&quot;border-color: var(--border-color);&quot;&gt;Outbound&amp;nbsp;&lt;/b&gt;Tunnel" style="swimlane;whiteSpace=wrap;html=1;fillColor=#d5e8d4;strokeColor=#82b366;swimlaneFillColor=#d5e8d4;" vertex="1" parent="Xi3z--n1uRrspBAFzxMy-13">
          <mxGeometry x="23" y="35" width="197" height="185" as="geometry" />
        </mxCell>
        <mxCell id="Xi3z--n1uRrspBAFzxMy-47" value="Connects to IP 24.25.252.100 port 52845" style="text;html=1;strokeColor=none;fillColor=none;align=center;verticalAlign=middle;whiteSpace=wrap;rounded=0;" vertex="1" parent="Xi3z--n1uRrspBAFzxMy-46">
          <mxGeometry x="10" y="30" width="140" height="30" as="geometry" />
        </mxCell>
        <mxCell id="Xi3z--n1uRrspBAFzxMy-54" value="Outbound Endpoint &lt;u&gt;A&lt;/u&gt;" style="swimlane;whiteSpace=wrap;html=1;fillColor=#e1d5e7;strokeColor=#9673a6;swimlaneFillColor=#e1d5e7;" vertex="1" parent="Xi3z--n1uRrspBAFzxMy-46">
          <mxGeometry x="26" y="74" width="150" height="100" as="geometry" />
        </mxCell>
        <mxCell id="Xi3z--n1uRrspBAFzxMy-55" value="Connects to 127.0.0.1&lt;br&gt;port 80 and routes&lt;br&gt;through tunnel to&lt;br&gt;endpoint A" style="text;html=1;align=center;verticalAlign=middle;resizable=0;points=[];autosize=1;strokeColor=none;fillColor=none;" vertex="1" parent="Xi3z--n1uRrspBAFzxMy-54">
          <mxGeometry x="5" y="22" width="140" height="70" as="geometry" />
        </mxCell>
        <mxCell id="Xi3z--n1uRrspBAFzxMy-16" value="" style="endArrow=classic;html=1;rounded=0;fillColor=#d5e8d4;strokeColor=#82b366;strokeWidth=18;" edge="1" parent="1" source="Xi3z--n1uRrspBAFzxMy-46" target="Xi3z--n1uRrspBAFzxMy-44">
          <mxGeometry relative="1" as="geometry">
            <mxPoint x="-600" y="237.33333333333326" as="sourcePoint" />
            <mxPoint x="-970" y="550" as="targetPoint" />
          </mxGeometry>
        </mxCell>
        <mxCell id="Xi3z--n1uRrspBAFzxMy-56" value="" style="endArrow=classic;startArrow=classic;html=1;rounded=0;entryX=0.017;entryY=0.172;entryDx=0;entryDy=0;entryPerimeter=0;exitX=1.006;exitY=0.35;exitDx=0;exitDy=0;exitPerimeter=0;fillColor=#e1d5e7;strokeColor=#9673a6;strokeWidth=3;" edge="1" parent="1" source="Xi3z--n1uRrspBAFzxMy-53" target="Xi3z--n1uRrspBAFzxMy-54">
          <mxGeometry width="50" height="50" relative="1" as="geometry">
            <mxPoint x="-940" y="470" as="sourcePoint" />
            <mxPoint x="-890" y="420" as="targetPoint" />
          </mxGeometry>
        </mxCell>
        <mxCell id="Xi3z--n1uRrspBAFzxMy-38" value="Internet" style="ellipse;shape=cloud;whiteSpace=wrap;html=1;" vertex="1" parent="1">
          <mxGeometry x="-940" y="230" width="120" height="80" as="geometry" />
        </mxCell>
        <mxCell id="Xi3z--n1uRrspBAFzxMy-24" value="Home Firewall" style="swimlane;horizontal=0;whiteSpace=wrap;html=1;fillColor=#f8cecc;strokeColor=#b85450;glass=0;rounded=0;shadow=0;swimlaneLine=1;swimlaneFillColor=default;" vertex="1" parent="1">
          <mxGeometry x="-1156" y="110" width="180" height="270" as="geometry" />
        </mxCell>
        <mxCell id="Xi3z--n1uRrspBAFzxMy-35" value="&lt;b&gt;Public IP &lt;/b&gt;24.25.252.100" style="text;html=1;align=center;verticalAlign=middle;resizable=0;points=[];autosize=1;strokeColor=none;fillColor=none;" vertex="1" parent="Xi3z--n1uRrspBAFzxMy-24">
          <mxGeometry x="30" y="30" width="150" height="30" as="geometry" />
        </mxCell>
        <mxCell id="Xi3z--n1uRrspBAFzxMy-37" value="&lt;b&gt;Rule:&lt;/b&gt; Allow traffic&lt;br&gt;from port 52845 to&lt;br&gt;local IP 10.10.1.100" style="text;html=1;align=center;verticalAlign=middle;resizable=0;points=[];autosize=1;strokeColor=none;fillColor=none;" vertex="1" parent="Xi3z--n1uRrspBAFzxMy-24">
          <mxGeometry x="25" y="50" width="130" height="60" as="geometry" />
        </mxCell>
        <mxCell id="Xi3z--n1uRrspBAFzxMy-25" value="Remote Server Firewall" style="swimlane;horizontal=0;whiteSpace=wrap;html=1;fillColor=#f8cecc;strokeColor=#b85450;rotation=-180;fillStyle=solid;swimlaneFillColor=default;" vertex="1" parent="1">
          <mxGeometry x="-785" y="110" width="150" height="270" as="geometry" />
        </mxCell>
        <mxCell id="Xi3z--n1uRrspBAFzxMy-42" value="&lt;b&gt;Public IP &lt;/b&gt;unknown" style="text;html=1;align=center;verticalAlign=middle;resizable=0;points=[];autosize=1;strokeColor=none;fillColor=none;" vertex="1" parent="Xi3z--n1uRrspBAFzxMy-25">
          <mxGeometry x="-7" y="20" width="130" height="30" as="geometry" />
        </mxCell>
        <mxCell id="Xi3z--n1uRrspBAFzxMy-43" value="&lt;b&gt;Rule:&lt;/b&gt;&amp;nbsp;none" style="text;html=1;align=center;verticalAlign=middle;resizable=0;points=[];autosize=1;strokeColor=none;fillColor=none;" vertex="1" parent="Xi3z--n1uRrspBAFzxMy-25">
          <mxGeometry x="-3" y="42" width="80" height="30" as="geometry" />
        </mxCell>
      </root>
    </mxGraphModel>
  </diagram>
</mxfile>
